<?xml version="1.0" encoding="UTF-8"?>
<!DOCTYPE svg PUBLIC "-//W3C//DTD SVG 1.1//EN" "http://www.w3.org/Graphics/SVG/1.1/DTD/svg11.dtd">
<!-- Creator: CorelDRAW 2017 -->
<svg xmlns="http://www.w3.org/2000/svg" xml:space="preserve" width="2043px" height="576px" version="1.1" style="shape-rendering:geometricPrecision; text-rendering:geometricPrecision; image-rendering:optimizeQuality; fill-rule:evenodd; clip-rule:evenodd"
viewBox="0 0 2047.89 576.99"
 xmlns:xlink="http://www.w3.org/1999/xlink">
 <defs>
  <style type="text/css">
   <![CDATA[
    .fil0 {fill:#00857D;fill-rule:nonzero}
    .fil6 {fill:#008755;fill-rule:nonzero}
    .fil1 {fill:#6BB9AE;fill-rule:nonzero}
    .fil4 {fill:#6BBBAE;fill-rule:nonzero}
    .fil3 {fill:#7CCC6C;fill-rule:nonzero}
    .fil5 {fill:#A1D6CA;fill-rule:nonzero}
    .fil2 {fill:#E73C3E;fill-rule:nonzero}
   ]]>
  </style>
 </defs>
 <g id="Layer_x0020_1">
  <metadata id="CorelCorpID_0Corel-Layer"/>
  <path class="fil0" d="M1946.05 415.44c49.24,0 70.78,-28.26 70.78,-68.54 0,-40.3 -21.54,-68.55 -70.78,-68.55l-22.1 0 0 137.09 22.1 0zm-52.04 -163.68l53.72 0c62.11,0 100.16,38.9 100.16,95.14 0,56.24 -37.77,95.13 -100.16,95.13l-53.72 0 0 -190.27zm-108.86 94.3c28.26,0 40.02,-11.2 40.02,-33.86 0,-22.94 -12.03,-33.85 -40.02,-33.85l-29.93 0 0 67.71 29.93 0zm-29.93 95.97l-29.94 0 0 -190.27 61 0c44.49,0 69.95,24.35 69.95,60.44 0,26.58 -13.15,45.61 -36.94,54.28l45.89 75.55 -32.74 0 -42.53 -70.23 -3.63 0 -31.06 0 0 70.23zm-166.77 -61.83l55.4 0 -27.42 -66.6 -27.98 66.6zm66.32 26.29l-77.23 0 -14.83 35.54 -30.21 0 83.37 -194.18 1.68 0 83.66 194.18 -31.62 0 -14.82 -35.54zm-268.06 -154.73l33.02 0 48.68 85.34 47.85 -85.34 31.33 0 -64.63 114.16 0 76.11 -29.93 0 0 -75.83 -66.32 -114.44zm-146.34 65.2l0 125.07 -27.98 0 0 -193.06 2.24 0 121.99 127.86 0 -125.07 27.98 0 0 193.07 -2.24 0 -121.99 -127.87zm-208.73 -65.2l33.01 0 48.69 85.34 47.84 -85.34 31.34 0 -64.64 114.16 0 76.11 -29.94 0 0 -75.83 -66.3 -114.44zm-261.35 0l31.62 0 40.85 121.44 53.72 -125.35 1.68 0 54 125.35 40.01 -121.44 29.66 0 -66.59 192.78 -1.68 0 -56.24 -132.61 -57.64 132.61 -1.4 0 -67.99 -192.78zm1070.91 -247.85l29.94 0 0 190.26 -29.94 0 0 -79.46 -91.21 0 0 79.46 -29.94 0 0 -190.26 29.94 0 0 84.22 91.21 0 0 -84.22zm-258.54 128.43l55.4 0 -27.42 -66.59 -27.98 66.59zm66.32 26.3l-77.23 0 -14.83 35.53 -30.22 0 83.38 -194.17 1.68 0 83.66 194.17 -31.62 0 -14.82 -35.53zm-201.74 -128.14l-56.52 0 0 -26.59 142.97 0 0 26.59 -56.52 0 0 163.67 -29.93 0 0 -163.67zm-159.21 101.84l55.4 0 -27.43 -66.59 -27.97 66.59zm66.3 26.3l-77.22 0 -14.83 35.53 -30.22 0 83.38 -194.17 1.69 0 83.65 194.17 -31.61 0 -14.84 -35.53zm-217.96 -60.43c28.26,0 40,-11.2 40,-33.86 0,-22.94 -12.02,-33.85 -40,-33.85l-29.94 0 0 67.71 29.94 0zm-29.94 95.96l-29.94 0 0 -190.26 61 0c44.48,0 69.94,24.35 69.94,60.44 0,26.58 -13.15,45.61 -36.93,54.28l45.89 75.54 -32.74 0 -42.52 -70.23 -3.64 0 -31.06 0 0 70.23zm-165.65 -61.83l55.4 0 -27.42 -66.59 -27.98 66.59zm66.31 26.3l-77.22 0 -14.83 35.53 -30.22 0 83.38 -194.17 1.68 0 83.66 194.17 -31.62 0 -14.83 -35.53zm-359.54 -154.73l31.61 0 40.85 121.43 53.72 -125.34 1.68 0 54 125.34 40.01 -121.43 29.66 0 -66.59 192.78 -1.68 0 -56.24 -132.62 -57.64 132.62 -1.39 0 -67.99 -192.78z"/>
  <path class="fil1" d="M1550 538.05c0,-22.37 17.03,-38.84 38.61,-38.84 14.03,0 23.71,5.45 30.27,14.69l-9.12 6.45c-5.01,-6.78 -11.46,-10.35 -21.48,-10.35 -15.02,0 -25.93,12.02 -25.93,28.05 0,16.35 11.13,28.04 26.38,28.04 9.79,0 17.02,-3.68 22.7,-11.02l9.23 6.35c-7.78,10.34 -17.69,15.46 -32.38,15.46 -21.59,0 -38.28,-16.47 -38.28,-38.83z"/>
  <path class="fil1" d="M1695.84 538.05c0,-16.03 -11.02,-28.05 -26.71,-28.05 -15.69,0 -26.71,12.02 -26.71,28.05 0,16.02 11.02,28.04 26.71,28.04 15.69,0 26.71,-12.02 26.71,-28.04zm-65.77 0c0,-22.37 17.36,-38.84 39.06,-38.84 21.7,0 39.06,16.47 39.06,38.84 0,22.36 -17.36,38.83 -39.06,38.83 -21.7,0 -39.06,-16.47 -39.06,-38.83z"/>
  <path class="fil1" d="M1721.01 549.17l0 -48.96 11.9 0 0 48.3c0,12.13 6.01,17.58 17.03,17.58 10.9,0 16.92,-5.45 16.92,-17.58l0 -48.3 11.9 0 0 48.96c0,18.47 -12.46,27.71 -28.82,27.71 -16.47,0 -28.93,-9.24 -28.93,-27.71z"/>
  <polygon class="fil1" points="1809.94,526.14 1809.94,575.88 1798.81,575.88 1798.81,499.09 1799.7,499.09 1848.21,549.95 1848.21,500.21 1859.34,500.21 1859.34,576.99 1858.45,576.99 "/>
  <path class="fil1" d="M1874.6 538.05c0,-22.37 17.03,-38.84 38.62,-38.84 14.02,0 23.7,5.45 30.27,14.69l-9.13 6.45c-5.01,-6.78 -11.46,-10.35 -21.48,-10.35 -15.02,0 -25.92,12.02 -25.92,28.05 0,16.35 11.12,28.04 26.37,28.04 9.79,0 17.03,-3.68 22.7,-11.02l9.23 6.35c-7.78,10.34 -17.69,15.46 -32.38,15.46 -21.59,0 -38.28,-16.47 -38.28,-38.83z"/>
  <polygon class="fil1" points="1961.53,500.21 1973.44,500.21 1973.44,575.88 1961.53,575.88 "/>
  <polygon class="fil1" points="1995.14,500.21 2007.05,500.21 2007.05,565.31 2040.43,565.31 2040.43,575.88 1995.14,575.88 "/>
  <path class="fil2" d="M321.02 15.3c-2.84,-5.5 -7.51,-9.47 -12.93,-11.32l204.5 0c5.33,0 8.7,6.16 6.1,11.18l-90.48 175.1c-1.75,3.39 -5.11,5 -8.4,4.88 -3.3,0.12 -6.65,-1.49 -8.4,-4.88l-90.39 -174.96z"/>
  <path class="fil0" d="M263.92 15.3c2.84,-5.5 7.52,-9.47 12.93,-11.32l-204.5 0c-5.33,0 -8.7,6.16 -6.11,11.18l90.49 175.1c1.75,3.39 5.11,5 8.4,4.88 3.3,0.12 6.65,-1.49 8.4,-4.88l90.39 -174.96z"/>
  <path class="fil3" d="M448.4 234.35c-2.84,-5.5 -7.51,-9.48 -12.92,-11.33l204.5 0c5.32,0 8.69,6.17 6.1,11.18l-90.48 175.1c-1.75,3.39 -5.11,5.01 -8.41,4.89 -3.29,0.12 -6.64,-1.5 -8.39,-4.89l-90.4 -174.95z"/>
  <path class="fil4" d="M391.31 211.7c2.84,5.5 7.51,9.47 12.92,11.32l-223.52 0c5.41,-1.85 10.08,-5.82 12.92,-11.32l90.39 -174.96c1.75,-3.39 5.11,-5 8.4,-4.88 3.3,-0.12 6.65,1.49 8.4,4.88l90.49 174.96z"/>
  <path class="fil5" d="M193.63 234.35c-2.84,-5.5 -7.51,-9.48 -12.92,-11.33l223.52 0c-5.41,1.85 -10.08,5.83 -12.92,11.33l-90.39 174.95c-1.75,3.39 -5.11,5.01 -8.4,4.89 -3.3,0.12 -6.65,-1.5 -8.4,-4.89l-90.49 -174.95z"/>
  <path class="fil6" d="M518.7 430.74c2.84,5.5 7.51,9.47 12.92,11.32l-223.53 0c5.42,-1.85 10.09,-5.82 12.93,-11.32l90.39 -174.96c1.75,-3.38 5.1,-5 8.4,-4.88 3.29,-0.12 6.65,1.5 8.4,4.88l90.49 174.96z"/>
  <path class="fil0" d="M262.64 432.57l-232.53 -423.7c-1.75,-3.39 -5.12,-5.1 -8.41,-4.98 -0.02,0 -14.7,0 -14.7,0 -5.33,0 -8.7,6.17 -6.11,11.18l232.03 422.29c1.84,3.34 5.24,4.87 8.53,4.65 0.14,0 15.6,0.01 15.6,0.01 4.85,0 7.92,-5.2 5.59,-9.45z"/>
 </g>
</svg>
